<svg xmlns="http://www.w3.org/2000/svg" width="1024" height="1024" viewBox="215 190 590 645"><defs><linearGradient id="a" x1="0%" y1="0%" x2="100%" y2="100%"><stop offset="0%" stop-color="#6366F1"/><stop offset="100%" stop-color="#A855F7"/></linearGradient></defs><path fill="url(#a)" d="M511.618 193.036c4.638 1.784 22.63 12.855 27.56 15.813l54.585 32.636 103.146 61.317a8183.544 8183.544 0 0 1 107.057 63.638l.147 291.954A14579.853 14579.853 0 0 0 605.96 776.055l-62.425 37.322c-8.185 4.895-23.82 14.914-31.87 18.733-3.438-1.08-20.055-11.378-24.232-13.9l-53.331-32.288-134.278-80.107c-26.424-15.806-53.279-32.525-79.766-48.007l-.161-291.938c8.526-4.417 22.074-13.204 30.689-18.344l48.78-28.508 144.116-85.638c22.503-13.376 45.462-27.331 68.136-40.344zm20.402 141.446 82.279 48.241c16.032 9.265 35.779 19.898 51.083 30.001a2982.358 2982.358 0 0 1-34.593 21.027c-5.53 3.379-16.753 10.694-22.255 13.034a6015.519 6015.519 0 0 1-73.134-43.124c-7.488-4.513-16.754-9.688-23.922-14.25l-58.164 34.531c-12.65 7.561-25.996 15.885-38.834 22.968-17.571-10.888-38.879-24.243-57.005-34.238 12.135-6.133 28.484-16.833 40.564-23.916l92.885-54.601c.138-32.284.559-66.227-.008-98.42-9.757 4.529-27.46 15.669-37.368 21.507a6048.872 6048.872 0 0 0-72.457 42.96l-76.686 45.864c-11.636 6.899-30.615 17.33-41.471 24.637 67.472 39.517 133.987 80.265 200.668 121.087 11.519 7.052 23.329 13.603 34.841 20.656-57.67 34.857-114.676 68.507-172.033 104.081a2253.06 2253.06 0 0 1-37.267 22.786c-7.153 4.289-18.332 10.577-24.822 15.435l154.476 92.066 47.442 28.398c6.843 4.084 18.179 11.302 24.774 14.552.026-32.406.428-65.691-.051-98.038-7.173-6.3-31.362-19.018-40.467-24.622-30.621-18.845-62.125-36.548-92.802-55.371a2870.252 2870.252 0 0 0 35.821-21.399c6.529-3.932 14.761-9.191 21.405-12.531l65.586 38.313c7.031 4.114 24.323 14.868 30.938 17.763 6.659-2.683 21.633-12.097 28.388-16.092l48.948-29.048c6.307-3.717 13.915-8.544 20.224-11.957 3.988 2.39 57.043 34.397 57.168 34.681-.863 1.393-38.257 23.048-42.453 25.564l-91.227 54.651c.619 27.643-.36 55.376.496 83.023.134 4.307.218 8.599.202 12.907 2.222-.617 11.988-6.288 14.547-7.684 17.3-9.437 34.177-19.784 51.142-29.837l161.519-95.406c-18.83-13.27-42.821-26.395-62.814-38.465l-112.338-68.368c-18.175-11.037-41.295-24.046-58.652-35.538 13.367-10.124 39.632-24.321 55.058-33.715a6356.761 6356.761 0 0 1 105.193-63.798l47.521-28.468c8.226-4.924 18.462-10.471 26.242-15.777-6.132-4.78-18.22-11.51-25.31-15.644l-41.726-24.351-103.74-61.542c-19.02-11.277-39.063-22.717-57.813-34.296l-.15 64.707c-.024 10.191-.532 25.366.152 35.056zm189.22 256.599a2748.789 2748.789 0 0 1 53.893 33.006l.188-168.089-.167-38.503c-.025-3.101.105-13.606-.426-15.758l-.202-.196-58.588 35.09c-8.171 4.904-20.783 12.99-28.892 17.097v76.819c0 12.889-.344 27.488.06 40.264l34.134 20.27zm-470.678 31.355c13.025-8.516 28.038-16.139 41.249-24.645 4.082-2.629 9.279-5.331 13.143-8.105 10.607-6.085 21.548-12.99 32.073-18.832.053-38.589.678-78.891-.039-117.31-28.724-16.802-57.667-35.705-86.488-51.923-.75 11.89-.337 25.063-.228 37.054l.234 49.619.011 89.945c.003 14.522-.25 29.778.045 44.197z"/></svg>