<svg xmlns="http://www.w3.org/2000/svg" width="1024" height="1024" viewBox="215 190 590 645"><path fill="#542ED2" d="M511.618 193.036C516.256 194.82 534.248 205.891 539.178 208.849L593.763 241.485L696.909 302.802C732.756 323.743 768.442 344.956 803.966 366.44L804.113 658.394C737.753 697.092 671.7 736.313 605.96 776.055L543.535 813.377C535.35 818.272 519.715 828.291 511.665 832.11C508.227 831.03 491.61 820.732 487.433 818.21L434.102 785.922L299.824 705.815C273.4 690.009 246.545 673.29 220.058 657.808L219.897 365.87C228.423 361.453 241.971 352.666 250.586 347.526L299.366 319.018L443.482 233.38C465.985 220.004 488.944 206.049 511.618 193.036ZM532.02 334.482L614.299 382.723C630.331 391.988 650.078 402.621 665.382 412.724C653.899 419.811 642.368 426.82 630.789 433.751C625.259 437.13 614.036 444.445 608.534 446.785C584.055 432.583 559.676 418.207 535.4 403.661C527.912 399.148 518.646 393.973 511.478 389.411L453.314 423.942C440.664 431.503 427.318 439.827 414.48 446.91C396.909 436.022 375.601 422.667 357.475 412.672C369.61 406.539 385.959 395.839 398.039 388.756L490.924 334.155C491.062 301.871 491.483 267.928 490.916 235.735C481.159 240.264 463.456 251.404 453.548 257.242C429.296 271.394 405.143 285.714 381.091 300.202L304.405 346.066C292.769 352.965 273.79 363.396 262.934 370.703C330.406 410.22 396.921 450.968 463.602 491.79C475.121 498.842 486.931 505.393 498.443 512.446C440.773 547.303 383.767 580.953 326.41 616.527C314.062 624.243 301.638 631.838 289.143 639.313C281.99 643.602 270.811 649.89 264.321 654.748L418.797 746.814L466.239 775.212C473.082 779.296 484.418 786.514 491.013 789.764C491.039 757.358 491.441 724.073 490.962 691.726C483.789 685.426 459.6 672.708 450.495 667.104C419.874 648.259 388.37 630.556 357.693 611.733C369.685 604.687 381.625 597.554 393.514 590.334C400.043 586.402 408.275 581.143 414.919 577.803L480.505 616.116C487.536 620.23 504.828 630.984 511.443 633.879C518.102 631.196 533.076 621.782 539.831 617.787L588.779 588.739C595.086 585.022 602.694 580.195 609.003 576.782C612.991 579.172 666.046 611.179 666.171 611.463C665.308 612.856 627.914 634.511 623.718 637.027L532.491 691.678C533.11 719.321 532.131 747.054 532.987 774.701C533.121 779.008 533.205 783.3 533.189 787.608C535.411 786.991 545.177 781.32 547.736 779.924C565.036 770.487 581.913 760.14 598.878 750.087L760.397 654.681C741.567 641.411 717.576 628.286 697.583 616.216L585.245 547.848C567.07 536.811 543.95 523.802 526.593 512.31C539.96 502.186 566.225 487.989 581.651 478.595C616.509 456.99 651.575 435.723 686.844 414.797L734.365 386.329C742.591 381.405 752.827 375.858 760.607 370.552C754.475 365.772 742.387 359.042 735.297 354.908L693.571 330.557L589.831 269.015C570.811 257.738 550.768 246.298 532.018 234.719L531.868 299.426C531.844 309.617 531.336 324.792 532.02 334.482ZM721.24 591.081C739.33 601.876 757.296 612.879 775.133 624.087L775.321 455.998L775.154 417.495C775.129 414.394 775.259 403.889 774.728 401.737L774.526 401.541L715.938 436.631C707.767 441.535 695.155 449.621 687.046 453.728L687.046 530.547C687.046 543.436 686.702 558.035 687.106 570.811L721.24 591.081ZM250.562 622.436C263.587 613.92 278.6 606.297 291.811 597.791C295.893 595.162 301.09 592.46 304.954 589.686C315.561 583.601 326.502 576.696 337.027 570.854C337.08 532.265 337.705 491.963 336.988 453.544C308.264 436.742 279.321 417.839 250.5 401.621C249.75 413.511 250.163 426.684 250.272 438.675L250.506 488.294L250.517 578.239C250.52 592.761 250.267 608.017 250.562 622.436Z"/></svg>